# xmcd CD database file
#
# Track frame offsets:
#	180
#	29087
#	55622
#	85488
#	109712
#	134505
#	158160
#	180295
#	202648
#	223959
#	246788
#
# Disc length: 3491 seconds
#
# Revision: 0
# Processed by: cddbd v1.4PL0 Copyright (c) Steve Scherf et al.
# Submitted via: Feurio! 1.61 - http://www.feurio.com
#
DISCID=940da10b
DTITLE=Various Artist - The One
DYEAR=1900
DGENRE=
TTITLE0=Simple Life
TTITLE1=The One
TTITLE2=Sweat It Out
TTITLE3=Runaway Train
TTITLE4=Whitewash County
TTITLE5=The North
TTITLE6=When a Woman Doesn't Want You
TTITLE7=Emily
TTITLE8=On Dark Street
TTITLE9=Understanding Women
TTITLE10=The Last Song
EXTD=
EXTT0=
EXTT1=
EXTT2=
EXTT3=with Eric Clapton
EXTT4=
EXTT5=
EXTT6=
EXTT7=
EXTT8=
EXTT9=
EXTT10=
PLAYORDER=
